# xmcd CD database file
#
# Track frame offsets:
#	150
#	13592
#	30880
#	42809
#	58625
#	77549
#	97047
#	116724
#	133878
#	150490
#	162975
#	183422
#	209762
#	225106
#	235281
#
# Disc length: 3265 seconds
#
# Revision: 0
# Processed by: cddbd v1.4PL0 Copyright (c) Steve Scherf et al.
# Submitted via: CDex 1.51
#
DISCID=b80cbf0f
DTITLE=Sara Marreiros Trio - Alma da Terra
DYEAR=1900
DGENRE=Jazz
TTITLE0=O Namorico Da Rita
TTITLE1=Cèuzinha
TTITLE2=Saudade Vai-Te Embora
TTITLE3=Cèu Da Minha Rua
TTITLE4=Fado Da Adiça
TTITLE5=Carmencita
TTITLE6=Lisboa A Noite
TTITLE7=Fado Lisboeta
TTITLE8=Saudade De Ti
TTITLE9=Fadista Louco
TTITLE10=A Rosinha Dos Limões
TTITLE11=Barco Negro
TTITLE12=Até Que A Voz Me Doa
TTITLE13=Destino
TTITLE14=Collage of Poetry and Traditional Music
EXTD=
EXTT0=
EXTT1=
EXTT2=
EXTT3=
EXTT4=
EXTT5=
EXTT6=
EXTT7=
EXTT8=
EXTT9=
EXTT10=
EXTT11=
EXTT12=
EXTT13=
EXTT14=
PLAYORDER=
